<?xml version="1.0" encoding="utf-8"?>
<!-- Generator: Adobe Illustrator 17.1.0, SVG Export Plug-In . SVG Version: 6.00 Build 0)  -->
<!DOCTYPE svg PUBLIC "-//W3C//DTD SVG 1.1//EN" "http://www.w3.org/Graphics/SVG/1.1/DTD/svg11.dtd">
<svg version="1.1" id="Layer_1" xmlns="http://www.w3.org/2000/svg" xmlns:xlink="http://www.w3.org/1999/xlink" x="0px" y="0px"
	 viewBox="0 0 800 800" enable-background="new 0 0 800 800" xml:space="preserve">
<path id="email-10-icon" fill="#63de00" d="M329.4,386l-99.6-76.5v176.1L329.4,386z M569.3,273.9H231l169.1,129.8L569.3,273.9z
	 M447.4,403.8l-47.4,36.4l-47.4-36.5L230.2,526.1h339.3L447.4,403.8z M470.5,386.1l99.7,99.7V309.7L470.5,386.1z"/>
<g>
	<path fill="#63de00" d="M400,56.4c46.4,0,91.4,9.1,133.8,27c40.9,17.3,77.7,42,109.2,73.6s56.4,68.3,73.6,109.2
		c18,42.3,27,87.3,27,133.8s-9.1,91.4-27,133.8c-17.3,40.9-42,77.7-73.6,109.2s-68.3,56.4-109.2,73.6c-42.3,18-87.3,27-133.8,27
		s-91.4-9.1-133.8-27c-40.9-17.3-77.7-42-109.2-73.6s-56.4-68.3-73.6-109.2c-18-42.3-27-87.3-27-133.8s9.1-91.4,27-133.8
		c17.3-40.9,42-77.7,73.6-109.2s68.3-56.4,109.2-73.6C308.6,65.5,353.6,56.4,400,56.4 M400,1.7C180,1.7,1.7,180,1.7,400
		S180,798.3,400,798.3S798.3,620,798.3,400S620,1.7,400,1.7L400,1.7z"/>
</g>
</svg>
