<?xml version="1.0" encoding="utf-8"?>
<!-- Generator: Adobe Illustrator 17.1.0, SVG Export Plug-In . SVG Version: 6.00 Build 0)  -->
<!DOCTYPE svg PUBLIC "-//W3C//DTD SVG 1.1//EN" "http://www.w3.org/Graphics/SVG/1.1/DTD/svg11.dtd">
<svg version="1.1" id="Layer_2" xmlns="http://www.w3.org/2000/svg" xmlns:xlink="http://www.w3.org/1999/xlink" x="0px" y="0px"
	 viewBox="0 0 800 800" enable-background="new 0 0 800 800" xml:space="preserve">
<g>
	<path fill="#63de00" d="M399.8,54.7c46.4,0,91.4,9.1,133.8,27c40.9,17.3,77.7,42,109.2,73.6s56.4,68.3,73.6,109.2
		c18,42.3,27,87.3,27,133.8s-9.1,91.4-27,133.8c-17.3,40.9-42,77.7-73.6,109.2s-68.3,56.4-109.2,73.6c-42.3,18-87.3,27-133.8,27
		s-91.4-9.1-133.8-27c-40.9-17.3-77.7-42-109.2-73.6S100.5,573,83.3,532c-18-42.3-27-87.3-27-133.8s9.1-91.4,27-133.8
		c17.3-40.9,42-77.7,73.6-109.2s68.3-56.4,109.2-73.6C308.4,63.8,353.4,54.7,399.8,54.7 M399.8,0C179.8,0,1.6,178.3,1.6,398.3
		s178.3,398.3,398.3,398.3s398.3-178.3,398.3-398.3C798,178.3,619.7,0,399.8,0L399.8,0z"/>
</g>
<g id="Layer_1">
	<path id="github-2-circle-outline-icon" fill="#63de00" d="M594.8,393.2l0.4-3.6c-21.8-2.1-43.3-2.3-64.3-0.7
		c3.3-10.8,5.2-23,5.1-36.7c-0.3-29.4-10-52.2-25.5-71.2c2.9-17.9,0.7-35.8-4.8-53.7c-22,1.7-41.8,9-59.4,21.5
		c-32.9-6.7-65.9-7.1-98.7,0c-20.6-13.9-40.7-20.7-60.7-21.5c-5.9,19.6-6.8,39.1-1.9,58.2c-17.4,18.4-23.9,40.7-23.6,65.5
		c0.1,14.2,2.4,26.7,6.4,37.9c-20.7-1.5-41.9-1.3-63.3,0.8l0.4,3.6c21.8-2.1,43.4-2.3,64.4-0.7c0.8,1.9,1.6,3.7,2.4,5.5
		c-22.7-0.5-43.3,1.3-62.5,6.1l0.8,3.5c19.5-4.8,40.3-6.7,63.6-5.9c15.4,27.4,45,43.4,88.3,48.6c-10,8.1-15.5,17.8-16.8,28.6
		c0,0-4.5,0-22.8,0c-30.7,0-39.1-39.1-70.9-35.3c30.9,15.4,24.7,64.3,74.1,64.3c16.6,0,20.2,0,20.7,0V553c0.3,7.2-2.9,12.2-8,15.5
		c17.6,1.7,31-7.1,31-17.9s0-54,0-59.3s5.5-5.7,5.5-5.7v69.1c0.3,6.9-3.1,10.8-6.7,14.6c15.6,0.7,30.2-2.5,30.9-15.8
		c0,0,0-62.9,0-66.3c0-3.3,5.5-3.5,5.5,0c0,3.5,0,63.2,0,63.2c0.1,11.2,9.9,20.3,30.3,18.8c-5.5-4.4-7.2-8.8-7.2-15.4
		c0-6.5,0-68.4,0-68.4s5.6-0.3,5.6,5.7s0,47.7,0,57.7c0,12.8,15.4,18.2,33,17.6c-5.7-4.3-9.6-9.5-9.8-16.4v-69.5
		c-0.5-10.2-4.8-19.8-12.8-28.9c39.5-6,68-21.8,82.2-50.1c23.4-0.8,44.4,1.1,63.9,5.9l0.8-3.5c-19.4-4.8-39.9-6.7-62.9-6.1
		c0.8-1.7,1.6-3.6,2.3-5.5C550.9,390.9,572.8,391.1,594.8,393.2z M265.1,449.6c-0.9,0-1.7-0.5-1.7-1.2c0-0.7,0.8-1.2,1.7-1.2
		c0.9,0,1.7,0.5,1.7,1.2C266.8,448.9,266,449.6,265.1,449.6z M270.6,453.3c-1.1,0-2-0.7-2-1.3c0-0.8,0.9-1.3,2-1.3
		c1.1,0,2,0.7,2,1.3C272.6,452.6,271.7,453.3,270.6,453.3z M276.2,458.1c-1.2,0-2.3-0.7-2.3-1.6s1.1-1.6,2.3-1.6
		c1.2,0,2.3,0.7,2.3,1.6S277.5,458.1,276.2,458.1z M281.7,464.1c-1.5,0-2.7-0.8-2.7-1.9c0-1.1,1.2-1.9,2.7-1.9
		c1.5,0,2.7,0.8,2.7,1.9C284.4,463.2,283.1,464.1,281.7,464.1z M287.7,470.7c-1.6,0-2.9-0.9-2.9-2.1c0-1.2,1.3-2.1,2.9-2.1
		s2.9,0.9,2.9,2.1C290.6,469.7,289.3,470.7,287.7,470.7z M294.6,477.5c-1.9,0-3.3-1.1-3.3-2.4c0-1.3,1.5-2.4,3.3-2.4
		c1.9,0,3.3,1.1,3.3,2.4C298,476.4,296.5,477.5,294.6,477.5z M304.1,483.9c-2,0-3.7-1.2-3.7-2.7c0-1.5,1.6-2.7,3.7-2.7
		c2,0,3.7,1.2,3.7,2.7C307.7,482.7,306.1,483.9,304.1,483.9z M315.7,487.4c-2,0-3.7-1.2-3.7-2.7c0-1.5,1.6-2.7,3.7-2.7
		c2,0,3.7,1.2,3.7,2.7C319.4,486.2,317.7,487.4,315.7,487.4z M328,487.8c-2,0-3.7-1.2-3.7-2.7c0-1.5,1.6-2.7,3.7-2.7
		c2,0,3.7,1.2,3.7,2.7C331.6,486.6,330,487.8,328,487.8z M340.2,487.9c-2,0-3.7-1.2-3.7-2.7c0-1.5,1.6-2.7,3.7-2.7
		c2,0,3.7,1.2,3.7,2.7C343.8,486.8,342.2,487.9,340.2,487.9z"/>
</g>
</svg>
