<?xml version="1.0" encoding="utf-8"?>
<!-- Generator: Adobe Illustrator 17.1.0, SVG Export Plug-In . SVG Version: 6.00 Build 0)  -->
<!DOCTYPE svg PUBLIC "-//W3C//DTD SVG 1.1//EN" "http://www.w3.org/Graphics/SVG/1.1/DTD/svg11.dtd">
<svg version="1.1" id="Layer_1" xmlns="http://www.w3.org/2000/svg" xmlns:xlink="http://www.w3.org/1999/xlink" x="0px" y="0px"
	 viewBox="0 0 800 800" enable-background="new 0 0 800 800" xml:space="preserve">
<path id="twitter-5-icon" fill="#24890D" d="M561.1,300c-11.8,5.2-24.5,8.8-38,10.5c13.7-8.2,24.2-21.2,29-36.6
	c-12.8,7.6-26.9,13.1-42,16.1c-12-12.9-29.2-21-48.1-21c-42.7,0-74,39.9-64.4,81.2c-54.9-2.7-103.6-29-136.3-69.1
	c-17.3,29.6-9,68.6,20.4,88.3c-10.8-0.4-21.1-3.4-29.9-8.2c-0.7,30.6,21.2,59.3,53.1,65.6c-9.3,2.5-19.4,3.1-29.9,1.1
	c8.5,26.3,32.9,45.3,61.8,46c-27.8,21.8-62.8,31.5-97.9,27.4c29.3,18.8,64,29.6,101.4,29.6c122.7,0,192.1-103.6,187.9-196.7
	C541.1,324.9,552.3,313.2,561.1,300z"/>
<g>
	<path fill="#24890D" d="M400,56.4c46.4,0,91.4,9.1,133.8,27c40.9,17.3,77.7,42,109.2,73.6s56.4,68.3,73.6,109.2
		c18,42.3,27,87.3,27,133.8s-9.1,91.4-27,133.8c-17.3,40.9-42,77.7-73.6,109.2s-68.3,56.4-109.2,73.6c-42.3,18-87.3,27-133.8,27
		s-91.4-9.1-133.8-27c-40.9-17.3-77.7-42-109.2-73.6s-56.4-68.3-73.6-109.2c-18-42.3-27-87.3-27-133.8s9.1-91.4,27-133.8
		c17.3-40.9,42-77.7,73.6-109.2s68.3-56.4,109.2-73.6C308.6,65.5,353.6,56.4,400,56.4 M400,1.7C180,1.7,1.7,180,1.7,400
		S180,798.3,400,798.3S798.3,620,798.3,400S620,1.7,400,1.7L400,1.7z"/>
</g>
</svg>
